{"title":"MYLENE FARMER_NRJ Music Awards-2013_Je te dis tout","uid":8071759,"size":148360122,"categoryP":"video","categoryS":"music_videos","magnet":"?xt=urn:btih:73dc4089c9e36030a0b3661ca46591dcb9cf0293&amp;dn=MYLENE+FARMER_NRJ+Music+Awards-2013_Je+te+dis+tout&amp;tr=udp%3A%2F%2Ftracker.openbittorrent.com%3A80&amp;tr=udp%3A%2F%2Fopen.demonii.com%3A1337&amp;tr=udp%3A%2F%2Ftracker.coppersurfer.tk%3A6969&amp;tr=udp%3A%2F%2Fexodus.desync.com%3A6969","seeders":1,"leechers":0,"uploader":null,"files":-1,"time":1359293724,"description":"Format                                   : AVI\nFormat/Info                              : Audio Video Interleave\nFile size                                : 141 MiB\nDuration                                 : 4mn 36s\nOverall bit rate                         : 4 300 Kbps\nWriting library                          : TMPGEnc 4.0 XPress Version. 4.7.4.299\n\nVideo\nID                                       : 0\nFormat                                   : MPEG-4 Visual\nFormat profile                           : Advanced Simple@L5\nFormat settings, BVOP                    : 2\nFormat settings, QPel                    : No\nFormat settings, GMC                     : No warppoints\nFormat settings, Matrix                  : Default (H.263)\nMuxing mode                              : Packed bitstream\nCodec ID                                 : XVID\nCodec ID/Hint                            : XviD\nDuration                                 : 4mn 36s\nBit rate                                 : 2 751 Kbps\nWidth                                    : 720 pixels\nHeight                                   : 576 pixels\nDisplay aspect ratio                     : 5:4\nFrame rate                               : 25.000 fps\nStandard                                 : PAL\nColor space                              : YUV\nChroma subsampling                       : 4:2:0\nBit depth                                : 8 bits\nScan type                                : Progressive\nCompression mode                         : Lossy\nBits/(Pixel*Frame)                       : 0.265\nStream size                              : 90.5 MiB (64%)\nWriting library                          : XviD 64\n\nAudio\nID                                       : 1\nFormat                                   : PCM\nFormat settings, Endianness              : Little\nFormat settings, Sign                    : Signed\nCodec ID                                 : 1\nDuration                                 : 4mn 36s\nBit rate mode                            : Constant\nBit rate                                 : 1 536 Kbps\nChannel(s)                               : 2 channels\nSampling rate                            : 48.0 KHz\nBit depth                                : 16 bits\nStream size                              : 50.5 MiB (36%)\nInterleave, duration                     : 40 ms (1.00 video frame)\nInterleave, preload duration             : 479 ms\n\n","torrent":{"xt":"urn:btih:73dc4089c9e36030a0b3661ca46591dcb9cf0293","amp;dn":"MYLENE+FARMER_NRJ+Music+Awards-2013_Je+te+dis+tout","amp;tr":["udp%3A%2F%2Ftracker.openbittorrent.com%3A80","udp%3A%2F%2Fopen.demonii.com%3A1337","udp%3A%2F%2Ftracker.coppersurfer.tk%3A6969","udp%3A%2F%2Fexodus.desync.com%3A6969"],"infoHash":"73dc4089c9e36030a0b3661ca46591dcb9cf0293","infoHashBuffer":{"type":"Buffer","data":[115,220,64,137,201,227,96,48,160,179,102,28,164,101,145,220,185,207,2,147]},"announce":[],"urlList":[]}}